<mxfile
  host="Electron" 
  agent="Mozilla/5.0 (Macintosh; Intel Mac OS X 10_15_7) AppleWebKit/537.36 (KHTML, like Gecko) draw.io/25.0.2 Chrome/128.0.6613.186 Electron/32.2.5 Safari/537.36" 
  version="25.0.2"
  >
  <diagram
    name="-"
    >
    <mxGraphModel
      grid="1" 
      gridSize="10" 
      guides="1" 
      tooltips="1" 
      connect="1" 
      arrows="1" 
      fold="1" 
      page="1" 
      pageScale="1" 
      pageWidth="1" 
      pageHeight="1" 
      math="0" 
      shadow="0"
      >
      <root>
        <mxCell
          id="page"
          />
        <mxCell
          id="root" 
          parent="page"
          />
        <mxCell
          style="verticalAlign=top;aspect=fixed;align=center;spacingLeft=5;spacingRight=5;spacingBottom=5;strokeColor=none;" 
          id="shape_" 
          parent="root" 
          value=" " 
          vertex="1"
          >
          <mxGeometry
            as="geometry" 
            width="97" 
            height="102" 
            x="0" 
            y="0"
            />
          </mxCell>
        <mxCell
          style="rounded=1;whiteSpace=wrap;verticalAlign=top;align=center;sketch=0;html=1;labelPosition=center;verticalLabelPosition=bottom;spacingTop=-6;fontSize=11;fontStyle=1;fontColor=#999999;shape=image;aspect=fixed;imageAspect=0;image=data:image/svg+xml,PHN2ZyB4bWxucz0iaHR0cDovL3d3dy53My5vcmcvMjAwMC9zdmciIGlkPSJzdmcxMDk4NTgiIHZlcnNpb249IjEuMSIgdmlld0JveD0iMCAwIDE0Ni4zNjkxNCAxNjUuOTY0ODQiIGhlaWdodD0iMTY1Ljk2NDg0bW0iIHdpZHRoPSIxNDYuMzY5MTRtbSI+JiN4YTsgICYjeGE7ICA8ZGVmcyBpZD0iZGVmczEwOTg1NSIvPiYjeGE7ICA8ZyB0cmFuc2Zvcm09InRyYW5zbGF0ZSgtMzIuODI0MjE5LC02Ny41NTg1OTQpIiBpZD0ibGF5ZXIxIj4mI3hhOyAgICA8cGF0aCBpZD0icGF0aDExMDE2NCIgZD0ibSA5Ny43NTE1NzYsNzcuOTAxNjM5IDcyLjI4MzczNCw4OC41NzU2NjEgLTcyLjI4MzczNSw1OC42MTM0OSAxMGUtNywtMTQ3LjE4OTE1MSIgc3R5bGU9ImNvbG9yOiMwMDAwMDA7b3BhY2l0eToxO2ZpbGw6IzY2OWRmNjtmaWxsLW9wYWNpdHk6MTtzdHJva2Utd2lkdGg6MC4yNjQ1ODNweDstaW5rc2NhcGUtc3Ryb2tlOm5vbmUiLz4mI3hhOyAgICA8cGF0aCBpZD0icGF0aDExNTU3MSIgZD0iTSA5Ny42NzE4NzUsMjMzLjUyMzQ0IDE3OS4xOTMzNiwxNjcuNDE5OTIgOTcuNzAxMTcyLDY3LjU1ODU5NCA5Ny44MDI3MzMsODguMjQ2MDk0IDE2MC44NzY5NSwxNjUuNTM1MTYgOTcuODMyMDMxLDIxNi42NTgyIFoiIHN0eWxlPSJjb2xvcjojMDAwMDAwO29wYWNpdHk6MTtmaWxsOiM0Mjg1ZjQ7ZmlsbC1vcGFjaXR5OjE7LWlua3NjYXBlLXN0cm9rZTpub25lIi8+JiN4YTsgICAgPHBhdGggZD0ibSA5Ny43MDExNzIsNjcuNTU4NTk0IC0zNC4yMzgyODEsNDIuNzk4ODI2IDEwLjE1MDM5LDguMTIxMSAyNC4xODk0NTMsLTMwLjIzMjQyNiB6IG0gMC4xMzA4NTksMTQ5LjA5OTYwNiAtMjIuMTA3NDIyLC0xOC42MzQ3NiAtOC4zNzg5MDYsOS45Mzk0NSAzMC4zMjYxNzIsMjUuNTYwNTUgeiIgc3R5bGU9ImNvbG9yOiMwMDAwMDA7b3BhY2l0eToxO2ZpbGw6IzY2OWRmNjtmaWxsLW9wYWNpdHk6MTstaW5rc2NhcGUtc3Ryb2tlOm5vbmUiIGlkPSJwYXRoMTEwMTYyIi8+JiN4YTsgICAgPHBhdGggZD0ibSA1Ny4xMTUyMzQsMTY4LjAyNzM0IGMgLTEzLjMyMTI5MiwwIC0yNC4yOTEwMTYsMTAuOTcxNjggLTI0LjI5MTAxNSwyNC4yOTI5NyAtMTBlLTcsMTMuMzIxMjkgMTAuOTY5NzIzLDI0LjI5MTAyIDI0LjI5MTAxNSwyNC4yOTEwMiAxMy4zMjEyOTIsMCAyNC4yOTI5NywtMTAuOTY5NzMgMjQuMjkyOTY5LC0yNC4yOTEwMiAxMGUtNywtMTMuMzIxMjkgLTEwLjk3MTY3NywtMjQuMjkyOTcgLTI0LjI5Mjk2OSwtMjQuMjkyOTcgeiBtIDAsMTYgYyA0LjY3NDI1OSwwIDguMjkyOTY5LDMuNjE4NzEgOC4yOTI5NjksOC4yOTI5NyAwLDQuNjc0MjYgLTMuNjE4NzEsOC4yOTEwMiAtOC4yOTI5NjksOC4yOTEwMiAtNC42NzQyNTgsMCAtOC4yOTEwMTYsLTMuNjE2NzYgLTguMjkxMDE1LC04LjI5MTAyIC0xMGUtNywtNC42NzQyNiAzLjYxNjc1NywtOC4yOTI5NyA4LjI5MTAxNSwtOC4yOTI5NyB6IG0gMCwtODEuOTE2MDEgYyAtMTMuMzIxMjkyLDAgLTI0LjI5MTAxNiwxMC45Njk3MiAtMjQuMjkxMDE1LDI0LjI5MTAxIC0xMGUtNywxMy4zMjEzIDEwLjk2OTcyMywyNC4yOTI5NyAyNC4yOTEwMTUsMjQuMjkyOTcgMTMuMzIxMjkyLDAgMjQuMjkyOTcsLTEwLjk3MTY3IDI0LjI5Mjk2OSwtMjQuMjkyOTcgMTBlLTcsLTEzLjMyMTI5IC0xMC45NzE2NzcsLTI0LjI5MTAxIC0yNC4yOTI5NjksLTI0LjI5MTAxIHogbSAwLDE2IGMgNC42NzQyNTksMCA4LjI5Mjk2OSwzLjYxNjc2IDguMjkyOTY5LDguMjkxMDEgMCw0LjY3NDI2IC0zLjYxODcxLDguMjkyOTcgLTguMjkyOTY5LDguMjkyOTcgLTQuNjc0MjU4LDAgLTguMjkxMDE2LC0zLjYxODcxIC04LjI5MTAxNSwtOC4yOTI5NyAtMTBlLTcsLTQuNjc0MjUgMy42MTY3NTcsLTguMjkxMDEgOC4yOTEwMTUsLTguMjkxMDEgeiIgc3R5bGU9ImNvbG9yOiMwMDAwMDA7b3BhY2l0eToxO2ZpbGw6I2FlY2JmYTtmaWxsLW9wYWNpdHk6MTtzdHJva2UtbGluZWpvaW46cm91bmQ7LWlua3NjYXBlLXN0cm9rZTpub25lIiBpZD0icGF0aDEwOTk4MS03Ii8+JiN4YTsgIDwvZz4mI3hhOzwvc3ZnPg;strokeColor=none;" 
          id="managed_ms_ad_" 
          parent="shape_" 
          value=" " 
          vertex="1"
          >
          <mxGeometry
            width="37" 
            height="42" 
            as="geometry" 
            x="30" 
            y="30"
            />
          </mxCell>
        </root>
      </mxGraphModel>
    </diagram>
  </mxfile>